<svg xmlns="http://www.w3.org/2000/svg" viewBox="0 0 63 63"><defs><style>.cls-1{fill:#fff;}</style></defs><title>Asset 21</title><g id="Layer_2" data-name="Layer 2"><g id="Layer_1-2" data-name="Layer 1"><polygon class="cls-1" points="11.72 49.63 9.14 46.32 9.5 43.38 20 35.2 20 0 0 10 0 62 20 54 20 49.09 18.26 50.45 11.72 49.63"/><polygon class="cls-1" points="12.77 43.78 12.37 47.06 20 41.11 20 38.03 12.77 43.78"/><path class="cls-1" d="M39,37.09l-3.83,3.15-6.22-.77-.37,2.94L25.33,42,24.92,45,22,44.6V54l20,9V37.75l-.4,0A12.38,12.38,0,0,1,39,37.09Z"/><path class="cls-1" d="M30.85,23.93A12.36,12.36,0,0,1,42,13.14V10L22,0V33.64l8.83-6.88A12.37,12.37,0,0,1,30.85,23.93Z"/><polygon class="cls-1" points="29.65 33.59 30.1 29.98 22 36.44 22 39.55 29.65 33.59"/><path class="cls-1" d="M44,10v3.14c.21,0,.43,0,.64,0A12.36,12.36,0,0,1,44,37.78V63l19-9V0Z"/><circle class="cls-1" cx="46" cy="23" r="4"/><polygon class="cls-1" points="18.09 39.55 24.81 34.2 26.05 36.39 17.27 43.24 18.09 39.55"/></g></g></svg>